@startuml

Asset <|-- Library
class  Library {
  LIBRARY_TYPE type
  Component component
  ListOfLibraryApiVersion versions
  PROGRAMMING_LANGUAGE language
}
Component "1" *-- "0..*" Library

enum PROGRAMMING_LANGUAGE {
         - JAVA
         - PYTHON
}

enum LIBRARY_TYPE {
         - MODEL
         - INTERFACE
         - CLIENT
}

class LibraryApiVersion {
  ApiVersion apiVersion
  Library library
  API_REPOSITORY_SATUS apiRepositoryStatus
  RESOURCE_STATUS pipelineStatus
}

enum API_REPOSITORY_SATUS {
         - PENDING
         - READY
         - UPDATING
         - UNSTABLE
         - ERROR
         - DELETED
}

Resource <|-- LibraryApiVersion
LibraryApiVersion "0..*" --o "1" Library
LibraryApiVersion "0..*" --* "1" ApiVersion

@enduml