@startuml

class  Group {
  String path
  Group parent
  User technicalUser
  ListOfBinaryRepository binaryRepositories
  ListOfAssignation members
  RESOURCE_STATUS sourceRepositoryStatus
  RESOURCE_STATUS sourceMembershipStatus
  RESOURCE_STATUS pipelineFolderStatus
  RESOURCE_STATUS binaryRepositoryStatus
}
Resource <|-- Group
Group  o-- "0..1"   Group : parent
Group  "1" o--   User : technicalUser
Group  "1" o-- "0..*"   Assignation : assignations
Group  "1" o-- "0..1"   KeyPair : group
Group  "1" o-- "0..*"   BinaryRepository : ownership

enum MEMBERSHIP_ROLE {
         - GUEST
         - CONTRIBUTOR
         - MANAGER
}
enum MEMBERSHIP_MEMBERTYPE {
         - USER
         - GROUP
}
class  Membership {
  String path
  MEMBERSHIP_ROLE role
  MEMBERSHIP_MEMBERTYPE memberType
  String memberName
}


class Assignation {
  String role
  String fte
}
Resource <|-- Assignation
@enduml